<?xml version="1.0" encoding="iso-8859-1"?>
<!-- Generator: Adobe Illustrator 19.0.0, SVG Export Plug-In . SVG Version: 6.00 Build 0)  -->
<svg version="1.1" id="Layer_1" xmlns="http://www.w3.org/2000/svg" xmlns:xlink="http://www.w3.org/1999/xlink" x="0px" y="0px"
	 viewBox="0 0 512 512" style="enable-background:new 0 0 512 512;" xml:space="preserve">
<rect x="8.477" y="58.896" style="fill:#B27214;" width="495.049" height="394.199"/>
<rect x="46.373" y="96.804" style="fill:#F2F2F2;" width="419.245" height="318.395"/>
<rect x="46.384" y="268.519" style="fill:#CCCCCC;" width="419.245" height="146.68"/>
<path style="fill:#6B991C;" d="M386.872,235.531v98.103c0,6.341-5.143,11.472-11.472,11.472h-38.134l-0.147-0.068
	c1.481-3.458,2.306-7.279,2.306-11.291c0-1.108-0.068-2.204-0.192-3.289c11.641-10.036,18.524-22.491,18.524-35.964
	c0-19.926-15.043-37.591-38.224-48.543v-10.421c0-5.493,0.949-10.918,2.769-16.027h61.801
	C385.923,224.613,386.872,230.038,386.872,235.531z"/>
<path style="fill:#E54728;" d="M384.103,219.505h-61.801c1.82-5.109,4.498-9.901,7.979-14.162
	c6.951-8.533,10.748-19.202,10.748-30.2v-2.317h24.356v2.317c0,5.504,0.949,10.918,2.769,16.027
	c1.82,5.109,4.498,9.912,7.968,14.173C379.605,209.604,382.283,214.396,384.103,219.505z"/>
<rect x="341.033" y="127.354" style="fill:#6B991C;" width="24.356" height="45.469"/>
<path style="fill:#F7B239;" d="M357.757,294.495c0,13.472-6.883,25.927-18.524,35.964c-1.628-14.297-13.766-25.396-28.504-25.396
	c-15.846,0-28.685,12.839-28.685,28.685c0,7.2,2.656,13.789,7.041,18.818c-7.945,1.413-16.32,2.159-24.967,2.159
	c-12.421,0-24.277-1.56-35.127-4.385c6.171-4.34,10.195-11.517,10.195-19.632c0-13.269-10.748-24.029-24.017-24.029
	c-12.195,0-22.254,9.087-23.802,20.853c-0.509-0.09-1.029-0.158-1.548-0.203c0.271-1.673,0.407-3.391,0.407-5.143
	c0-13.416-8.104-24.933-19.688-29.906v-0.011c1.82-32.234,43.028-58.003,93.582-58.003c20.74,0,39.897,4.329,55.415,11.686
	C342.714,256.904,357.757,274.569,357.757,294.495z"/>
<path style="fill:#F95428;" d="M339.233,330.459c0.124,1.085,0.192,2.181,0.192,3.289c0,4.012-0.825,7.832-2.306,11.291
	c-4.385,10.229-14.557,17.394-26.391,17.394c-8.646,0-16.388-3.82-21.644-9.867c-4.385-5.03-7.041-11.619-7.041-18.818
	c0-15.846,12.839-28.685,28.685-28.685C325.467,305.062,337.605,316.161,339.233,330.459z"/>
<path style="fill:#90BC42;" d="M215.168,306.679c13.269,0,24.017,10.76,24.017,24.029c0,8.115-4.024,15.292-10.195,19.632
	c-3.911,2.769-8.669,4.385-13.823,4.385c-1.311,0-2.6-0.102-3.854-0.316c0.147-1.04,0.215-2.102,0.215-3.176
	c0-11.946-8.737-21.859-20.163-23.701C192.914,315.766,202.973,306.679,215.168,306.679z"/>
<path style="fill:#F95428;" d="M211.529,351.232c0,1.074-0.068,2.136-0.215,3.176c-1.548,11.766-11.619,20.853-23.814,20.853
	c-12.263,0-22.39-9.2-23.825-21.09c-0.136-0.961-0.192-1.944-0.192-2.939c0-13.258,10.76-24.017,24.017-24.017
	c0.78,0,1.56,0.034,2.317,0.113c0.52,0.045,1.04,0.113,1.548,0.203C202.793,329.374,211.529,339.286,211.529,351.232z"/>
<path style="fill:#F4DE3B;" d="M190.224,322.185c0,1.752-0.136,3.47-0.407,5.143c-0.757-0.079-1.537-0.113-2.317-0.113
	c-13.258,0-24.017,10.76-24.017,24.017c0,0.995,0.057,1.978,0.192,2.939c-1.944,0.362-3.944,0.554-5.99,0.554
	c-17.982,0-32.55-14.569-32.55-32.539c0-17.982,14.569-32.55,32.55-32.55c4.566,0,8.906,0.938,12.851,2.633v0.011
	C182.121,297.253,190.224,308.77,190.224,322.185z"/>
<path style="fill:#333333;" d="M503.523,50.424H8.477C3.794,50.424,0,54.22,0,58.901v394.198c0,4.681,3.794,8.477,8.477,8.477
	h495.047c4.683,0,8.477-3.795,8.477-8.477V58.901C512,54.22,508.205,50.424,503.523,50.424z M457.148,260.046h-61.803v-24.518
	c0-12.915-4.495-25.539-12.652-35.541c-2.832-3.478-5.037-7.402-6.556-11.663c-1.511-4.244-2.277-8.679-2.277-13.184v-47.786
	c0-4.681-3.794-8.477-8.477-8.477h-24.357c-4.682,0-8.477,3.795-8.477,8.477v47.786c0,9.021-3.14,17.845-8.835,24.837
	c-4.071,4.982-7.232,10.595-9.4,16.68c-1.92,5.392-2.996,11.003-3.214,16.707c-14.337-4.95-30.374-7.578-46.984-7.578
	c-37.887,0-70.9,13.688-88.528,34.26H54.852V105.276h402.295v154.769H457.148z M378.392,235.529v98.108
	c0,1.651-1.343,2.994-2.994,2.994h-27.623c0.067-0.865,0.11-1.736,0.116-2.616c12.006-11.523,18.34-25.103,18.34-39.522
	c0-19.071-11.121-36.728-31.316-49.717c-2.22-1.427-4.53-2.772-6.908-4.05v-5.197c0-2.546,0.253-5.07,0.74-7.55h48.9
	C378.133,230.455,378.392,232.982,378.392,235.529z M290.518,333.747c0-11.145,9.067-20.213,20.213-20.213
	c11.146,0,20.214,9.068,20.214,20.213c0,11.146-9.068,20.214-20.214,20.214C299.585,353.962,290.518,344.894,290.518,333.747z
	 M310.731,296.581c-20.493,0-37.166,16.673-37.166,37.166c0,4.206,0.712,8.245,2.005,12.018c-3.777,0.313-7.602,0.48-11.455,0.48
	c-6.691,0-13.269-0.489-19.682-1.432c2.066-4.269,3.227-9.055,3.227-14.109c0-9.692-4.268-18.401-11.015-24.362l1.09-1.09
	c3.312-3.31,3.312-8.677,0.001-11.988c-3.312-3.309-8.679-3.312-11.987,0l-5.36,5.36c-1.701-0.276-3.444-0.425-5.222-0.425
	c-7.545,0-14.57,2.621-20.145,7.037c-3.301-7.248-8.647-13.371-15.302-17.629c5.664-25.169,41.867-44.868,84.396-44.868
	c23.407,0,45.294,5.787,61.629,16.294c15.177,9.762,23.534,22.355,23.534,35.46c0,7.819-2.925,14.52-6.782,19.974
	C335.966,303.751,324.171,296.581,310.731,296.581z M219.505,345.616c-1.793-10.233-8.383-18.83-17.364-23.381
	c2.793-4.284,7.629-7.082,13.024-7.082c8.569,0,15.541,6.977,15.541,15.552C230.706,337.767,225.967,343.732,219.505,345.616z
	 M155.411,346.13c-12.213-1.148-21.803-11.446-21.803-23.947c0-13.274,10.799-24.074,24.074-24.074
	c12.289,0,22.438,9.27,23.873,21.185C168.117,321.792,157.56,332.577,155.411,346.13z M187.504,335.691
	c8.57,0,15.544,6.972,15.544,15.544c0,8.57-6.973,15.544-15.544,15.544c-8.57,0-15.544-6.972-15.544-15.544
	C171.96,342.664,178.934,335.691,187.504,335.691z M356.906,164.35h-7.404v-28.519h7.404V164.35z M349.148,181.303h8.108
	c0.476,4.325,1.441,8.581,2.909,12.709c2.17,6.089,5.327,11.701,9.385,16.685c0.088,0.107,0.17,0.219,0.255,0.328h-33.216
	c0.087-0.11,0.17-0.223,0.259-0.331C343.704,202.28,347.958,192.023,349.148,181.303z M54.852,276.999h110.46
	c-0.584,1.518-1.122,3.05-1.555,4.609c-1.984-0.296-4.011-0.453-6.075-0.453c-19.288,0-35.5,13.383-39.863,31.349l-7.476-1.13
	c-4.627-0.7-8.949,2.485-9.649,7.115c-0.7,4.628,2.485,8.948,7.115,9.649l9.528,1.44c3.472,18.974,20.037,33.425,39.959,33.612
	c4.773,12.019,16.51,20.544,30.21,20.544c13.738,0,25.503-8.573,30.25-20.647c4.537-0.359,8.812-1.65,12.637-3.687
	c10.815,2.515,22.138,3.8,33.724,3.8c7.475,0,14.873-0.539,22.059-1.588c6.554,5.783,15.151,9.304,24.557,9.304
	c13.203,0,24.813-6.926,31.408-17.331h33.259c10.998,0,19.947-8.948,19.947-19.947v-56.638h61.803v129.725H54.852V276.999z
	 M462.113,88.323H49.887L28.942,67.378h454.117L462.113,88.323z M37.899,100.311v311.378l-20.945,20.945V79.366L37.899,100.311z
	 M49.887,423.677h412.225l20.945,20.945H28.942L49.887,423.677z M474.101,411.689V100.311l20.945-20.945v353.268L474.101,411.689z"
	/>
<g>
</g>
<g>
</g>
<g>
</g>
<g>
</g>
<g>
</g>
<g>
</g>
<g>
</g>
<g>
</g>
<g>
</g>
<g>
</g>
<g>
</g>
<g>
</g>
<g>
</g>
<g>
</g>
<g>
</g>
</svg>
