<svg xmlns="http://www.w3.org/2000/svg" viewBox="0 0 48 48"><defs><style>.cls-1{fill:#201602;}</style></defs><title>Asset 56ldpi</title><g id="Layer_2" data-name="Layer 2"><g id="layer_1-2" data-name="layer 1"><path class="cls-1" d="M10,36c-2.76,0-5-2.69-5-6a4.68,4.68,0,0,1,5-5,4.68,4.68,0,0,1,5,5C15,33.31,12.76,36,10,36Zm0-9a2.72,2.72,0,0,0-3,3c0,2.21,1.35,4,3,4s3-1.79,3-4A2.72,2.72,0,0,0,10,27Z"/><path class="cls-1" d="M2,48H0V39.58a5,5,0,0,1,4.45-5L9.89,34l.22,2-5.44.61a3,3,0,0,0-2.67,3Z"/><rect class="cls-1" x="4" y="40" width="2" height="8"/><rect class="cls-1" x="14" y="40" width="2" height="8"/><path class="cls-1" d="M24,36c-2.76,0-5-2.69-5-6a4.68,4.68,0,0,1,5-5,4.68,4.68,0,0,1,5,5C29,33.31,26.76,36,24,36Zm0-9a2.72,2.72,0,0,0-3,3c0,2.21,1.35,4,3,4s3-1.79,3-4A2.72,2.72,0,0,0,24,27Z"/><path class="cls-1" d="M16,48H14V39.58a5,5,0,0,1,4.45-5l5.44-.6.22,2-5.44.61a3,3,0,0,0-2.67,3Z"/><rect class="cls-1" x="18" y="40" width="2" height="8"/><path class="cls-1" d="M34,48H32V39.58a3,3,0,0,0-2.67-3L23.89,36l.22-2,5.44.6a5,5,0,0,1,4.45,5Z"/><rect class="cls-1" x="28" y="40" width="2" height="8"/><path class="cls-1" d="M38,36c-2.76,0-5-2.69-5-6a4.68,4.68,0,0,1,5-5,4.68,4.68,0,0,1,5,5C43,33.31,40.76,36,38,36Zm0-9a2.72,2.72,0,0,0-3,3c0,2.21,1.35,4,3,4s3-1.79,3-4A2.72,2.72,0,0,0,38,27Z"/><rect class="cls-1" x="32" y="40" width="2" height="8"/><path class="cls-1" d="M48,48H46V39.58a3,3,0,0,0-2.67-3L37.89,36l.22-2,5.44.6a5,5,0,0,1,4.45,5Z"/><rect class="cls-1" x="42" y="40" width="2" height="8"/><path class="cls-1" d="M38,22a1,1,0,0,1-.86-.49L34.43,17H27.57l-2.71,4.51a1,1,0,0,1-1.72,0L20.43,17H13.57l-2.71,4.51a1,1,0,0,1-1.72,0L6.43,17H1a1,1,0,0,1-1-1V1A1,1,0,0,1,1,0H47a1,1,0,0,1,1,1V16a1,1,0,0,1-1,1H41.57l-2.71,4.51A1,1,0,0,1,38,22ZM27,15h8a1,1,0,0,1,.86.49L38,19.06l2.14-3.57A1,1,0,0,1,41,15h5V2H2V15H7a1,1,0,0,1,.86.49L10,19.06l2.14-3.57A1,1,0,0,1,13,15h8a1,1,0,0,1,.86.49L24,19.06l2.14-3.57A1,1,0,0,1,27,15Z"/><rect class="cls-1" x="30" y="5" width="13" height="2"/><rect class="cls-1" x="17" y="5" width="11" height="2"/><rect class="cls-1" x="6" y="5" width="9" height="2"/><rect class="cls-1" x="22" y="10" width="12" height="2"/><rect class="cls-1" x="6" y="10" width="14" height="2"/></g></g></svg>