<?xml version="1.0" encoding="utf-8"?>
<!-- Generator: Adobe Illustrator 16.0.0, SVG Export Plug-In . SVG Version: 6.00 Build 0)  -->
<!DOCTYPE svg PUBLIC "-//W3C//DTD SVG 1.1//EN" "http://www.w3.org/Graphics/SVG/1.1/DTD/svg11.dtd">
<svg version="1.1" id="Layer_1" xmlns="http://www.w3.org/2000/svg" xmlns:xlink="http://www.w3.org/1999/xlink" x="0px" y="0px"
	 width="128px" height="128px" viewBox="0 0 128 128" enable-background="new 0 0 128 128" xml:space="preserve">
<g>
	<g>
		<path fill="#282D33" d="M124.703,110.223l-30.88-8.25c-6.819,2.505-14.04,3.774-21.474,3.774c-4.447,0-8.884-0.465-13.189-1.381
			l0.833-3.912c4.031,0.858,8.188,1.293,12.356,1.293c7.168,0,14.12-1.259,20.663-3.742l0.604-0.229l25.427,6.794l-5.527-20.575
			l0.666-0.797C120.605,75.511,124,66.427,124,56.928c0-24.714-23.17-44.82-51.65-44.82c-28.482,0-51.654,20.106-51.654,44.82
			c0,2.854,0.313,5.716,0.929,8.504l-3.905,0.863c-0.679-3.071-1.023-6.223-1.023-9.367c0-26.92,24.966-48.82,55.654-48.82
			c30.686,0,55.65,21.9,55.65,48.82c0,10.115-3.483,19.783-10.086,28.025L124.703,110.223z"/>
	</g>
	<g>
		<path fill="#282D33" d="M0.71,119.893l4.082-15.19C1.654,100.187,0,95.022,0,89.706c0-15.854,14.651-28.752,32.66-28.752
			c18.008,0,32.659,12.898,32.659,28.753c0,15.854-14.651,28.752-32.66,28.752c-5.163,0-10.281-1.082-14.851-3.135L0.71,119.893z
			 M18.186,111.083l0.665,0.316c4.205,2.002,8.979,3.06,13.808,3.06c15.803,0,28.66-11.104,28.66-24.752S48.462,64.954,32.66,64.954
			C16.857,64.954,4,76.058,4,89.706c0,4.763,1.581,9.397,4.572,13.4l0.582,0.778L6.372,114.24L18.186,111.083z"/>
	</g>
	<g>
		<rect x="51.006" y="30.458" fill="#282D33" width="9.269" height="4"/>
	</g>
	<g>
		<g>
			<rect x="17.389" y="87.775" fill="#282D33" width="5.793" height="4"/>
		</g>
		<g>
			<rect x="29.763" y="87.775" fill="#282D33" width="5.793" height="4"/>
		</g>
		<g>
			<rect x="42.139" y="87.775" fill="#282D33" width="5.794" height="4"/>
		</g>
	</g>
	<g>
		<rect x="85.141" y="30.458" fill="#282D33" width="9.268" height="4"/>
	</g>
	<g>
		<path fill="#282D33" d="M73.021,67.736c-10.714,0-19.485-9.425-19.968-21.456L52.97,44.2h40.104l-0.084,2.081
			C92.506,58.313,83.734,67.736,73.021,67.736z M57.234,48.2c1.221,8.863,7.838,15.536,15.787,15.536
			c7.948,0,14.565-6.673,15.788-15.536H57.234z"/>
	</g>
</g>
</svg>
