<svg xmlns="http://www.w3.org/2000/svg" viewBox="0 0 128 128"><title>icon19.2</title><g id="padlock"><path d="M64.023,98.614a4.95,4.95,0,0,1-2.153-.5c-3.046-1.469-13.2-6.657-16.013-11.732A11.787,11.787,0,0,1,44.8,76.343a9.454,9.454,0,0,1,6.182-5.462c5.288-1.64,9.053,2.031,11.8,4.71q.275.269.545.53a1,1,0,0,0,1.386.005c.159-.151.319-.305.48-.46,2.831-2.721,6.713-6.446,11.886-4.779a9.521,9.521,0,0,1,6.155,5.757,11.444,11.444,0,0,1-1.084,9.8C78.971,91.757,68.286,97.1,66.176,98.119A4.947,4.947,0,0,1,64.023,98.614ZM53.566,74.48a4.672,4.672,0,0,0-1.4.222,5.46,5.46,0,0,0-3.654,3.133,7.851,7.851,0,0,0,.843,6.614c1.666,3.01,8.358,7.225,14.25,10.067a.953.953,0,0,0,.832,0c5.565-2.684,12.409-7,14.285-10.126h0a7.43,7.43,0,0,0,.77-6.339,5.519,5.519,0,0,0-3.638-3.356c-2.7-.869-4.877.962-7.888,3.856-.562.54-1.11,1.065-1.645,1.537a3.482,3.482,0,0,1-4.6,0c-.567-.5-1.141-1.059-1.729-1.632C57.59,76.112,55.728,74.48,53.566,74.48Z"/><path d="M83.73,44.02H50.07V29.24A13.948,13.948,0,0,1,64.7,15.33,14.16,14.16,0,0,1,77.93,29.7a2.258,2.258,0,0,0,2.26,2.26h7.4a2.723,2.723,0,0,0,2.72-2.72,26.31,26.31,0,0,0-52.62,0v15.6A26.881,26.881,0,0,0,17.43,70.86V90.07a35.038,35.038,0,0,0,35,35H75.57a35.038,35.038,0,0,0,35-35V70.86A26.87,26.87,0,0,0,83.73,44.02ZM41.69,29.24a22.308,22.308,0,0,1,44.58-1.28H81.85A18.1,18.1,0,0,0,64.9,11.33,17.964,17.964,0,0,0,46.07,29.24V44.02H41.69Zm64.88,60.83a31.04,31.04,0,0,1-31,31H52.43a31.04,31.04,0,0,1-31-31V70.86A22.865,22.865,0,0,1,44.27,48.02H83.73a22.865,22.865,0,0,1,22.84,22.84Z"/></g></svg>