<svg xmlns="http://www.w3.org/2000/svg" width="47.999" height="48" viewBox="0 0 47.999 48">
  <g>
    <circle cx="23.999" cy="38.545" r="0.728" fill="#1a171b"/>
    <path d="M44.363,4.85H32.309A9.015,9.015,0,0,0,24,0a9.017,9.017,0,0,0-8.309,4.85H3.636A3.64,3.64,0,0,0,0,8.485V38.546a3.64,3.64,0,0,0,3.636,3.635h10.91v4.365H9.455a.727.727,0,1,0,0,1.454h29.09a.727.727,0,1,0,0-1.454H33.454V42.181H44.363A3.64,3.64,0,0,0,48,38.546V8.485A3.64,3.64,0,0,0,44.363,4.85ZM24,1.456a7.644,7.644,0,0,1,6.952,3.885,21.281,21.281,0,0,0-3.78,1.377,13.1,13.1,0,0,1-2.844,1.021c-3.825.676-6.146-.645-7.474-2.016A7.609,7.609,0,0,1,24,1.456ZM16.309,7.213c.006.006.019.006.025.01a8.75,8.75,0,0,0,5.981,2.156,12.859,12.859,0,0,0,2.266-.209,14.279,14.279,0,0,0,3.177-1.123,18.94,18.94,0,0,1,3.784-1.332,10.029,10.029,0,0,1,.478,3.137c0,5.4-3.6,9.8-8.02,9.8s-8.021-4.4-8.021-9.8A10.286,10.286,0,0,1,16.309,7.213ZM24,27.139c-2.649-.9-6.152-2.645-6.788-4.137a6.033,6.033,0,0,0,2.706-3.01,8.042,8.042,0,0,0,8.174-.006,6.222,6.222,0,0,0,2.7,2.982C30.162,24.465,26.651,26.231,24,27.139Zm8.1-3.578c.155.055.309.109.47.152.641.152,1.271.326,1.9.512a29.678,29.678,0,0,1,4.2,1.578A5.039,5.039,0,0,1,41.7,30.3v4.607H24.728V28.426C26.505,27.8,31.022,25.985,32.1,23.561Zm-8.826,4.867v6.48H6.3V30.3a5.029,5.029,0,0,1,3.028-4.49,29.7,29.7,0,0,1,4.19-1.578c.629-.186,1.251-.359,1.9-.512.157-.039.315-.09.475-.143C16.962,26,21.489,27.8,23.272,28.428ZM1.454,8.485A2.185,2.185,0,0,1,3.636,6.3H15.072a11.479,11.479,0,0,0-.548,3.549,11.954,11.954,0,0,0,4.151,9.3,4.645,4.645,0,0,1-2.591,2.789h0a5.393,5.393,0,0,1-1,.357c-.671.16-1.32.34-1.976.535a31.093,31.093,0,0,0-4.4,1.656A6.47,6.47,0,0,0,4.849,30.3v4.611h-3.4V8.485ZM32,46.546H16V42.181H32Zm14.546-8a2.185,2.185,0,0,1-2.182,2.182H3.635a2.185,2.185,0,0,1-2.182-2.182V36.364H46.544v2.182Zm0-3.637H43.151V30.3a6.478,6.478,0,0,0-3.868-5.813,30.752,30.752,0,0,0-4.405-1.658c-.65-.193-1.307-.375-1.974-.533a5.741,5.741,0,0,1-.977-.373,4.861,4.861,0,0,1-2.6-2.77,11.945,11.945,0,0,0,4.151-9.3A11.47,11.47,0,0,0,32.926,6.3H44.363a2.185,2.185,0,0,1,2.182,2.182Z" fill="#1a171b"/>
  </g>
</svg>
