<?xml version="1.0" encoding="utf-8"?>
<!-- Generator: Adobe Illustrator 16.0.0, SVG Export Plug-In . SVG Version: 6.00 Build 0)  -->
<!DOCTYPE svg PUBLIC "-//W3C//DTD SVG 1.1//EN" "http://www.w3.org/Graphics/SVG/1.1/DTD/svg11.dtd">
<svg version="1.1" id="Layer_1" xmlns="http://www.w3.org/2000/svg" xmlns:xlink="http://www.w3.org/1999/xlink" x="0px" y="0px"
	 width="128px" height="128px" viewBox="0 0 128 128" enable-background="new 0 0 128 128" xml:space="preserve">
<g>
	<g>
		<g>
			<path fill="#282D33" d="M84.034,87.439c-9.701,0-18.857-3.053-26.549-8.84l-11.589,3.073l3.107-11.468
				c-5.849-7.612-8.935-16.673-8.935-26.271c0-23.99,19.723-43.508,43.967-43.508c11.739,0,22.777,4.523,31.08,12.735
				c8.31,8.218,12.886,19.147,12.885,30.772C128,67.923,108.276,87.439,84.034,87.439z M58.378,74.225l0.785,0.618
				c7.139,5.624,15.74,8.597,24.872,8.597c22.037,0,39.966-17.723,39.966-39.506c0-10.549-4.153-20.467-11.697-27.928
				c-7.55-7.467-17.589-11.58-28.268-11.58c-22.038,0-39.967,17.723-39.967,39.508c0,9.018,3.003,17.514,8.685,24.571l0.639,0.793
				l-1.824,6.732L58.378,74.225z"/>
		</g>
		<g>
			<path fill="#282D33" d="M75.626,127.574L75.626,127.574c-16.786,0-35.458-9.363-51.23-25.689
				C7.66,85.446-1.198,66.36,0.13,49.561l0.05-0.63l0.403-0.487c1.318-1.593,2.47-2.87,3.626-4.019
				c2.66-2.619,5.605-4.942,8.759-6.914l1.638-1.024l1.08,1.602c4.729,7.013,10.015,14.021,15.711,20.831l1.064,1.272l-1.054,1.281
				c-0.239,0.291-0.468,0.504-0.72,0.672l-6.801,4.472c-0.422,0.271-0.71,0.751-0.828,1.361c-0.2,1.039,0.111,2.264,0.833,3.275
				c2.048,2.894,10.297,11.935,15.494,17.381c5.477,5.109,14.579,13.23,17.502,15.259c0.826,0.574,1.782,0.89,2.696,0.89
				c0.923,0,1.689-0.324,2.048-0.867l1.821-2.712c0.9-1.342,1.8-2.683,2.704-4.021c0.213-0.325,0.5-0.573,0.696-0.729l1.263-1.006
				l1.25,1.022c6.875,5.625,13.96,10.853,21.058,15.538l1.646,1.086l-1.063,1.66c-2.001,3.131-4.354,6.044-6.991,8.658
				c-1.162,1.153-2.45,2.297-4.055,3.6l-0.484,0.394l-0.623,0.048C77.802,127.533,76.715,127.574,75.626,127.574z M4.073,50.503
				c-0.964,15.47,7.449,33.13,23.163,48.565c15.06,15.587,32.683,24.506,48.39,24.506l0,0c0.774,0,1.547-0.022,2.303-0.068
				c1.274-1.053,2.324-1.994,3.272-2.935c1.965-1.947,3.757-4.075,5.346-6.343c-6.085-4.09-12.148-8.563-18.069-13.331
				c-0.569,0.848-1.135,1.691-1.701,2.534l-1.815,2.703c-1.093,1.653-3.106,2.647-5.375,2.647c-1.723,0-3.491-0.569-4.978-1.604
				c-3.225-2.236-12.643-10.667-17.992-15.659l-0.082-0.081C31.456,86.118,22.89,76.76,20.632,73.569
				c-1.36-1.909-1.908-4.225-1.499-6.349c0.327-1.696,1.242-3.102,2.576-3.958l5.238-3.444c-4.823-5.86-9.341-11.854-13.467-17.863
				c-2.303,1.575-4.469,3.357-6.458,5.314C6.085,48.2,5.138,49.239,4.073,50.503z"/>
		</g>
	</g>
	<g>
		<g>
			<rect x="70.027" y="29.45" fill="#282D33" width="6.408" height="4"/>
		</g>
		<g>
			<rect x="90.119" y="29.45" fill="#282D33" width="6.403" height="4"/>
		</g>
		<g>
			<path fill="#282D33" d="M83.607,66.828c-11.231,0-20.429-9.814-20.938-22.344l-0.084-2.081h42.045l-0.085,2.081
				C104.037,57.013,94.84,66.828,83.607,66.828z M66.848,46.403c1.259,9.362,8.299,16.425,16.76,16.425
				c8.463,0,15.502-7.063,16.76-16.425H66.848z"/>
		</g>
	</g>
</g>
</svg>
