<?xml version="1.0" encoding="iso-8859-1"?>
<!-- Generator: Adobe Illustrator 19.0.1, SVG Export Plug-In . SVG Version: 6.00 Build 0)  -->
<svg version="1.1" xmlns="http://www.w3.org/2000/svg" xmlns:xlink="http://www.w3.org/1999/xlink" x="0px" y="0px"
	 viewBox="0 0 128 128" style="enable-background:new 0 0 128 128;" xml:space="preserve">
<g id="_x32_2">
	<path id="_x32_2_1_" style="fill:#171617;" d="M30.646,105.021v6.215h66.261v-6.215H30.646z M30.646,90.518v6.215h66.261v-6.215
		H30.646z M30.646,73.944v6.215h66.261v-6.215H30.646z M30.646,57.371v6.215h33.131v-6.215H30.646z M30.646,105.021v6.215h66.261
		v-6.215H30.646z M30.646,90.518v6.215h66.261v-6.215H30.646z M30.646,73.944v6.215h66.261v-6.215H30.646z M30.646,57.371v6.215
		h33.131v-6.215H30.646z M30.646,105.021v6.215h66.261v-6.215H30.646z M30.646,90.518v6.215h66.261v-6.215H30.646z M30.646,73.944
		v6.215h66.261v-6.215H30.646z M30.646,57.371v6.215h33.131v-6.215H30.646z M30.646,42.868v6.215h33.131v-6.215H30.646z
		 M30.646,42.868v6.215h33.131v-6.215H30.646z M30.646,42.868v6.215h33.131v-6.215H30.646z M91.43,11.792c-2.357,0-5.826,0-10.917,0
		h-3.771C76.515,1.433,71.198,0.19,64.712,0.19S52.927,1.433,52.701,11.792H48.93c-5.091,0-8.56,0-10.917,0H14.081V127.81h99.392
		V11.792H91.43z M58.358,9.704c0.226-3.32,2.979-5.942,6.354-5.942c3.375,0,6.147,2.622,6.373,5.942
		c0.019,0.151,0.019,0.302,0.019,0.453c0,1.207-0.339,2.358-0.943,3.32c-1.112,1.83-3.149,3.056-5.449,3.056
		c-2.3,0-4.318-1.226-5.43-3.056c-0.603-0.962-0.943-2.113-0.943-3.32C58.339,10.005,58.339,9.854,58.358,9.704z M105.19,119.523
		H22.364V20.079h11.426c-1.037,4.143-0.66,6.215-0.66,6.215h63.165c0,0,0.377-2.072-0.66-6.215h9.556V119.523z"/>
</g>
<g id="Layer_1">
</g>
</svg>
